<?xml version="1.0" encoding="utf-8"?>
<!-- Generator: Adobe Illustrator 23.0.2, SVG Export Plug-In . SVG Version: 6.00 Build 0)  -->
<svg version="1.1" id="Layer_1" xmlns="http://www.w3.org/2000/svg" xmlns:xlink="http://www.w3.org/1999/xlink" x="0px" y="0px"
	 viewBox="0 0 234.9 191" style="enable-background:new 0 0 234.9 191;" xml:space="preserve">
<style type="text/css">
	.st0{fill:#FFFFFF;}
</style>
<g id="Logo__x2014__FIXED">
	<path class="st0" d="M73.7,191c88.7,0,137.2-73.5,137.2-137.2c0-2.1,0-4.2-0.1-6.2c9.4-6.8,17.6-15.3,24.1-25
		c-8.6,3.8-17.9,6.4-27.7,7.6c10-6,17.6-15.4,21.2-26.7c-9.3,5.5-19.6,9.5-30.6,11.7C189,5.8,176.5,0,162.6,0
		c-26.6,0-48.2,21.6-48.2,48.2c0,3.8,0.4,7.5,1.3,11C75.6,57.2,40.1,38,16.3,8.8C12.2,15.9,9.8,24.2,9.8,33
		c0,16.7,8.5,31.5,21.5,40.1c-7.9-0.2-15.3-2.4-21.8-6c0,0.2,0,0.4,0,0.6c0,23.4,16.6,42.8,38.7,47.3c-4,1.1-8.3,1.7-12.7,1.7
		c-3.1,0-6.1-0.3-9.1-0.9c6.1,19.2,23.9,33.1,45,33.5c-16.5,12.9-37.3,20.6-59.9,20.6c-3.9,0-7.7-0.2-11.5-0.7
		C21.1,183,46.5,191,73.7,191"/>
</g>
</svg>
